<?xml version="1.0" standalone="no"?>
<!DOCTYPE svg PUBLIC "-//W3C//DTD SVG 20010904//EN"
 "http://www.w3.org/TR/2001/REC-SVG-20010904/DTD/svg10.dtd">
<svg version="1.0" xmlns="http://www.w3.org/2000/svg"
 width="400.000000pt" height="400.000000pt" viewBox="0 0 400.000000 400.000000"
 preserveAspectRatio="xMidYMid meet">
<metadata>
Created by potrace 1.11, written by Peter Selinger 2001-2013
</metadata>
<g transform="translate(0.000000,400.000000) scale(0.100000,-0.100000)"
fill="#000000" stroke="none">
<path d="M0 2000 l0 -2000 2000 0 2000 0 0 2000 0 2000 -2000 0 -2000 0 0
-2000z m2118 1574 c246 -28 407 -75 603 -176 277 -142 558 -418 665 -653 l27
-58 -24 -18 c-13 -10 -54 -34 -90 -54 l-66 -35 -52 89 c-294 496 -833 758
-1389 675 -138 -20 -270 -63 -407 -130 -386 -190 -679 -597 -736 -1021 -17
-127 -6 -395 20 -499 66 -266 176 -459 371 -654 196 -196 371 -293 680 -377
53 -14 105 -17 280 -17 200 1 222 3 312 27 254 69 440 172 617 342 104 99 188
203 248 307 25 44 51 82 58 85 15 5 59 -16 133 -64 l52 -35 -31 -57 c-100
-178 -225 -328 -391 -468 -241 -205 -509 -315 -866 -358 -121 -15 -143 -15
-265 0 -169 21 -260 39 -372 76 -602 201 -1041 769 -1071 1389 -16 315 39 583
171 838 77 148 154 251 285 382 271 271 583 419 980 464 63 7 116 14 118 15 2
0 65 -6 140 -15z m-228 -1575 l0 -1091 -57 7 c-32 4 -101 21 -153 37 -366 117
-631 384 -734 740 -28 99 -46 185 -38 193 3 3 52 5 108 5 l103 0 11 -42 c50
-200 122 -337 240 -458 90 -92 203 -171 278 -194 l22 -7 0 908 c0 499 3 918 6
930 4 15 18 26 43 33 44 13 118 27 149 29 l22 1 0 -1091z m378 1060 c303 -80
547 -270 690 -539 195 -365 169 -819 -66 -1149 -169 -239 -451 -414 -736 -456
l-46 -7 0 1084 c0 597 3 1088 7 1091 8 9 56 1 151 -24z"/>
<path d="M2330 1995 c0 -443 2 -805 5 -805 3 0 32 13 64 29 201 102 369 308
443 541 20 66 23 95 23 235 -1 186 -12 241 -79 380 -80 163 -186 280 -341 376
-129 80 -115 171 -115 -756z"/>
</g>
</svg>
